{
	"asset":{
		"generator":"Khronos glTF Blender I/O v4.0.44",
		"version":"2.0"
	},
	"extensionsUsed":[
		"KHR_materials_clearcoat"
	],
	"scene":0,
	"scenes":[
		{
			"name":"Scene",
			"nodes":[
				0,
				1
			]
		}
	],
	"nodes":[
		{
			"mesh":0,
			"name":"Circle",
			"rotation":[
				0.70710688829422,
				0,
				0,
				0.7071066498756409
			],
			"scale":[
				0.011002338491380215,
				0.01100233569741249,
				0.01100233569741249
			],
			"translation":[
				0.002591043710708618,
				0.009252773597836494,
				-0.0025682449340820312
			]
		},
		{
			"mesh":1,
			"name":"Circle.002",
			"rotation":[
				0.70710688829422,
				0,
				0,
				0.7071066498756409
			],
			"scale":[
				0.008251753635704517,
				0.008251752704381943,
				0.005501167848706245
			],
			"translation":[
				0.002591043710708618,
				0.012926505878567696,
				-0.0025682449340820312
			]
		}
	],
	"materials":[
		{
			"doubleSided":true,
			"extensions":{
				"KHR_materials_clearcoat":{
					"clearcoatFactor":0.06422018259763718,
					"clearcoatRoughnessFactor":0
				}
			},
			"name":"Default OBJ",
			"pbrMetallicRoughness":{
				"baseColorFactor":[
					0.6350855827331543,
					0.5893888473510742,
					0.1338380128145218,
					1
				],
				"metallicFactor":0.44954127073287964,
				"roughnessFactor":0.3623853325843811
			}
		}
	],
	"meshes":[
		{
			"name":"Circle",
			"primitives":[
				{
					"attributes":{
						"POSITION":0,
						"NORMAL":1,
						"TEXCOORD_0":2
					},
					"indices":3,
					"material":0
				}
			]
		},
		{
			"name":"Circle.002",
			"primitives":[
				{
					"attributes":{
						"POSITION":4,
						"NORMAL":5,
						"TEXCOORD_0":6
					},
					"indices":3,
					"material":0
				}
			]
		}
	],
	"accessors":[
		{
			"bufferView":0,
			"componentType":5126,
			"count":79581,
			"max":[
				6.036894798278809,
				6.036894798278809,
				-0.002300000051036477
			],
			"min":[
				-6.036894798278809,
				-6.036894798278809,
				-0.5061990022659302
			],
			"type":"VEC3"
		},
		{
			"bufferView":1,
			"componentType":5126,
			"count":79581,
			"type":"VEC3"
		},
		{
			"bufferView":2,
			"componentType":5126,
			"count":79581,
			"type":"VEC2"
		},
		{
			"bufferView":3,
			"componentType":5125,
			"count":153324,
			"type":"SCALAR"
		},
		{
			"bufferView":4,
			"componentType":5126,
			"count":79581,
			"max":[
				6.036894798278809,
				6.036894798278809,
				-0.002300000051036477
			],
			"min":[
				-6.036894798278809,
				-6.036894798278809,
				-0.5061990022659302
			],
			"type":"VEC3"
		},
		{
			"bufferView":5,
			"componentType":5126,
			"count":79581,
			"type":"VEC3"
		},
		{
			"bufferView":6,
			"componentType":5126,
			"count":79581,
			"type":"VEC2"
		}
	],
	"bufferViews":[
		{
			"buffer":0,
			"byteLength":954972,
			"byteOffset":0,
			"target":34962
		},
		{
			"buffer":0,
			"byteLength":954972,
			"byteOffset":954972,
			"target":34962
		},
		{
			"buffer":0,
			"byteLength":636648,
			"byteOffset":1909944,
			"target":34962
		},
		{
			"buffer":0,
			"byteLength":613296,
			"byteOffset":2546592,
			"target":34963
		},
		{
			"buffer":0,
			"byteLength":954972,
			"byteOffset":3159888,
			"target":34962
		},
		{
			"buffer":0,
			"byteLength":954972,
			"byteOffset":4114860,
			"target":34962
		},
		{
			"buffer":0,
			"byteLength":636648,
			"byteOffset":5069832,
			"target":34962
		}
	],
	"buffers":[
		{
			"byteLength":5706480,
			"uri":"fullcipherdisk.bin"
		}
	]
}
